<svg width="178" height="38" viewBox="0 0 178 38" fill="none" xmlns="http://www.w3.org/2000/svg">
<path d="M125.549 28.123C126.628 28.123 127.511 27.8057 128.198 27.1706C128.886 26.5355 129.23 25.7045 129.23 24.6779C129.23 23.6516 128.886 22.8206 128.198 22.1855C127.511 21.5503 126.628 21.2329 125.549 21.2329C124.471 21.2329 123.583 21.5503 122.887 22.1855C122.191 22.8206 121.843 23.6516 121.843 24.6779C121.843 25.7045 122.191 26.5355 122.887 27.1706C123.583 27.8057 124.471 28.123 125.549 28.123ZM133.249 18.1008V29.7936C133.249 32.3687 132.579 34.2826 131.239 35.5353C129.899 36.7882 127.942 37.4145 125.367 37.4145C124.009 37.4145 122.722 37.2493 121.504 36.9185C120.286 36.588 119.277 36.1094 118.476 35.483L120.094 32.5599C120.686 33.0471 121.434 33.4342 122.339 33.7213C123.244 34.0085 124.149 34.1519 125.054 34.1519C126.463 34.1519 127.502 33.8344 128.172 33.1993C128.842 32.5642 129.177 31.6028 129.177 30.3152V29.7148C128.116 30.8807 126.637 31.4637 124.74 31.4637C123.453 31.4637 122.274 31.181 121.204 30.6155C120.134 30.0501 119.285 29.254 118.659 28.2274C118.033 27.2009 117.719 26.0175 117.719 24.6778C117.719 23.3381 118.033 22.1548 118.659 21.1283C119.285 20.1018 120.134 19.3057 121.204 18.7402C122.274 18.1745 123.453 17.8918 124.74 17.8918C126.776 17.8918 128.325 18.5619 129.386 19.9016V18.1006L133.249 18.1008ZM109.364 29.0106C110.408 29.0106 111.265 28.6582 111.935 27.9536C112.605 27.249 112.94 26.3049 112.94 25.1218C112.94 23.9386 112.605 22.9946 111.935 22.29C111.265 21.5854 110.408 21.233 109.364 21.233C108.32 21.233 107.459 21.5854 106.78 22.29C106.101 22.9946 105.762 23.9386 105.762 25.1218C105.762 26.3049 106.101 27.249 106.78 27.9536C107.459 28.6582 108.32 29.0106 109.364 29.0106ZM109.364 32.3513C107.885 32.3513 106.558 32.0424 105.384 31.4247C104.209 30.8071 103.291 29.9501 102.63 28.8539C101.969 27.7577 101.638 26.5137 101.638 25.1217C101.638 23.7297 101.969 22.4856 102.63 21.3894C103.291 20.2932 104.209 19.4362 105.384 18.8184C106.558 18.2007 107.885 17.8918 109.364 17.8918C110.843 17.8918 112.165 18.2007 113.331 18.8184C114.497 19.4362 115.41 20.2932 116.072 21.3894C116.733 22.4856 117.063 23.7295 117.063 25.1217C117.063 26.5135 116.733 27.7577 116.072 28.8539C115.411 29.9501 114.497 30.8071 113.331 31.4247C112.165 32.0426 110.843 32.3513 109.364 32.3513ZM90.5162 28.6713C92.3432 28.6713 93.8005 28.1622 94.8879 27.1446C95.9754 26.1265 96.5192 24.7476 96.5192 23.0077C96.5192 21.2676 95.9754 19.8889 94.8879 18.8707C93.8005 17.8528 92.3432 17.3439 90.5162 17.3439H86.6534V28.6711L90.5162 28.6713ZM82.4253 13.8727H90.725C92.7086 13.8727 94.4616 14.251 95.9841 15.0079C97.5067 15.7648 98.6897 16.8305 99.5336 18.2052C100.378 19.5798 100.8 21.1806 100.8 23.0075C100.8 24.8344 100.378 26.4352 99.5336 27.8097C98.6897 29.1845 97.5067 30.2502 95.9841 31.0069C94.4616 31.764 92.7086 32.1423 90.725 32.1423H82.4253V13.8727ZM73.3421 19.9017C72.0197 19.9017 70.9103 20.3236 70.0144 21.1675C69.1183 22.0114 68.6094 23.1119 68.4876 24.469H78.223C78.1011 23.1119 77.5922 22.0112 76.696 21.1675C75.7996 20.3236 74.6818 19.9017 73.3421 19.9017ZM79.9713 25.8524H68.4874C68.5918 27.2793 69.1399 28.4319 70.1317 29.3105C71.1235 30.1892 72.3764 30.6286 73.89 30.6286C74.7427 30.6286 75.5257 30.4762 76.239 30.1716C76.9524 29.8672 77.5702 29.4192 78.0921 28.8276L79.1362 30.0282C78.5272 30.7589 77.766 31.3156 76.8525 31.6985C75.9389 32.0813 74.9342 32.2727 73.8381 32.2727C72.4285 32.2727 71.1801 31.9724 70.0927 31.3722C69.0053 30.772 68.1569 29.9412 67.5481 28.8797C66.9391 27.8184 66.6345 26.6179 66.6345 25.278C66.6345 23.9383 66.926 22.7375 67.5089 21.6764C68.0917 20.6149 68.8923 19.7884 69.9101 19.1968C70.9278 18.6052 72.072 18.3094 73.3421 18.3094C74.6121 18.3094 75.7518 18.6052 76.7612 19.1968C77.7703 19.7884 78.5621 20.6106 79.1362 21.6631C79.7103 22.7156 79.9975 23.9207 79.9975 25.278L79.9713 25.8524ZM58.2296 18.3096C59.9521 18.3096 61.3224 18.8098 62.3404 19.8102C63.3581 20.8108 63.8672 22.2682 63.8672 24.1821V32.1425H62.0139V24.3646C62.0139 22.9379 61.6573 21.8504 60.9439 21.1022C60.2305 20.3539 59.2128 19.9798 57.8902 19.9798C56.4112 19.9798 55.2411 20.419 54.3798 21.2977C53.5185 22.1763 53.0879 23.3902 53.0879 24.9387V32.1422H51.2348V12.7765H53.0879V20.8153C53.5925 20.0147 54.2885 19.3972 55.1759 18.962C56.0633 18.5271 57.0813 18.3096 58.2296 18.3096ZM41.1336 15.5431H34.7131V13.8727H49.4856V15.5431H43.0649V32.1427H41.1336V15.5431Z" fill="#233945"/>
<path d="M173.772 14.2186H178V32.4885H173.772V14.2186ZM163.723 24.0059C164.993 24.0059 165.959 23.7322 166.62 23.1839C167.281 22.6358 167.612 21.8572 167.612 20.8479C167.612 19.8215 167.281 19.034 166.62 18.4859C165.959 17.9377 164.993 17.6637 163.723 17.6637H160.278V24.0058L163.723 24.0059ZM163.958 14.2186C165.576 14.2186 166.981 14.4883 168.173 15.0278C169.365 15.5671 170.283 16.3328 170.926 17.3246C171.57 18.3164 171.892 19.491 171.892 20.8481C171.892 22.1878 171.57 23.3581 170.926 24.3583C170.283 25.3589 169.365 26.1246 168.173 26.6551C166.981 27.1858 165.576 27.4512 163.958 27.4512H160.278V32.4885H156.05V14.2186H163.958ZM147.88 25.3632L144.983 18.3685L142.086 25.3632H147.88ZM149.211 28.5735H140.728L139.11 32.4885H134.778L142.921 14.2186H147.097L155.266 32.4885H150.829L149.211 28.5735Z" fill="#24AAD5"/>
<path fill-rule="evenodd" clip-rule="evenodd" d="M18.5658 3.07857C20.2598 -0.247612 24.2394 0.0197214 25.8703 1.28101C28.9578 3.66857 27.9903 7.22108 26.1032 7.0012C24.9204 6.86332 23.9576 4.01128 21.8445 5.65324C24.5069 13.881 20.8658 17.8281 15.9771 19.1875C15.7879 19.226 14.5704 19.3899 14.4503 19.8928C13.812 22.5648 15.9102 23.8656 17.1693 24.7913C20.4921 27.2349 23.1045 29.955 22.82 33.2907C24.2086 33.2178 24.7538 33.0556 25.2489 31.8869C25.5345 31.212 26.0012 30.9787 25.9804 31.9503C25.9354 34.0415 24.7886 35.5812 22.7017 35.6817C20.7539 35.6979 18.3042 35.6996 15.9728 35.6974H13.781C13.4789 35.6974 13.2968 35.562 13.2216 35.3733C13.1707 35.2457 13.162 35.0913 13.1924 34.9321C13.2243 34.7651 13.2989 34.5969 13.4128 34.4505C13.673 34.1169 14.1436 33.897 14.7944 34.0619C14.92 34.0934 15.0473 34.017 15.0786 33.8914C15.1005 33.8046 15.0704 33.7167 15.0081 33.6604C13.9258 32.5788 13.6168 31.5182 13.7752 30.6324C13.8562 30.1799 14.0589 29.7704 14.342 29.4255C14.6268 29.0785 14.9943 28.7967 15.402 28.6021C16.2223 28.2106 17.2006 28.178 17.9906 28.6855C18.0995 28.7553 18.2444 28.7238 18.3144 28.6148C18.3844 28.5057 18.3525 28.361 18.2436 28.291C17.3061 27.6889 16.1569 27.722 15.2002 28.1784C14.7334 28.401 14.311 28.7261 13.9806 29.1283C13.6487 29.5328 13.4105 30.015 13.3149 30.5497C13.1543 31.4471 13.3939 32.4851 14.2634 33.5378C13.7222 33.5652 13.309 33.8225 13.044 34.1624C12.8825 34.3697 12.777 34.6078 12.7317 34.844C12.6851 35.0877 12.702 35.333 12.7867 35.5456C12.8078 35.5984 12.8327 35.6491 12.8617 35.6972H9.53264C8.46958 35.6972 7.65397 34.8122 9.07802 33.8144C7.73132 26.3807 10.8994 21.1108 9.4347 19.6461C7.31286 19.4185 5.35128 18.8599 3.92955 18.0953C-0.766962 15.5691 -0.556566 10.6368 0.983155 10.5913C4.61857 10.4839 3.39131 8.02863 4.98278 5.10533C4.46798 4.40628 4.52475 4.27343 3.20455 5.09763C0.982798 6.48462 0.974558 2.72672 3.22424 0.976245C4.80067 -0.250303 7.45271 -0.875217 8.53869 2.54909C11.86 1.55675 15.4992 2.12903 18.5658 3.07857Z" fill="#24AAD5"/>
<path fill-rule="evenodd" clip-rule="evenodd" d="M18.566 3.0786C20.2601 -0.247587 24.2396 0.0197464 25.8705 1.28103C28.958 3.66859 27.9905 7.2211 26.1034 7.00122C24.9206 6.86335 23.9578 4.0113 21.8447 5.65327C23.3015 10.1551 22.8709 13.3753 21.3819 15.5919C21.8121 12.963 20.7149 9.92918 14.6263 11.7695C10.3001 13.0772 7.2291 10.7632 8.30918 6.34318C8.8818 3.99985 11.0404 1.96449 12.9679 2.044C14.9098 2.12421 16.8295 2.54089 18.566 3.0786Z" fill="#1D8AC0"/>
<path fill-rule="evenodd" clip-rule="evenodd" d="M3.89698 10.7531C4.90974 10.7343 5.78855 10.8685 5.80162 11.3849C5.81076 11.7428 5.3076 12.0017 4.92316 12.4372C4.48662 12.9316 4.31884 13.1815 4.19314 13.1803C3.57145 13.1744 2.60418 12.0814 2.58914 11.5546C2.5741 11.0276 2.88441 10.7719 3.89698 10.7531Z" fill="white"/>
<path fill-rule="evenodd" clip-rule="evenodd" d="M11.3012 10.4311C12.3905 10.6716 13.0353 9.16265 13.201 8.2781C13.4499 6.94985 10.6574 6.4073 10.3933 7.81703C10.2277 8.70157 10.2118 10.1908 11.3012 10.4311Z" fill="white"/>
<path fill-rule="evenodd" clip-rule="evenodd" d="M5.68428 10.0196C6.48825 10.1394 6.93697 8.76348 7.04422 7.97473C7.2052 6.79026 5.14549 6.548 4.97467 7.80498C4.8676 8.59391 4.88031 9.89996 5.68428 10.0196Z" fill="white"/>
</svg>
